<svg version="1.1" xmlns="http://www.w3.org/2000/svg" viewBox="0 0 1682.400146484375 360.79998779296875" width="1682.400146484375" height="360.79998779296875">
  <!-- svg-source:excalidraw -->
  
  <defs>
    <style class="style-fonts">
      
    </style>
    
  </defs>
  <rect x="0" y="0" width="1682.400146484375" height="360.79998779296875" fill="#ffffff"></rect><g transform="translate(470.800048828125 50) rotate(0 356 149.60000610351562)" stroke="none"><path fill="#fc1f15" d="M 0,6.52 Q 0,6.52 -4.59,6.93 -9.19,7.34 -16.71,8.08 -24.24,8.83 -38.17,12.56 -52.11,16.29 -75.54,24.67 -98.97,33.06 -136.53,48.52 -174.09,63.98 -219.59,82.05 -265.10,100.12 -306.00,117.40 -346.90,134.69 -375.22,148.40 -403.54,162.12 -418.94,172.31 -434.33,182.50 -439.80,190.50 -445.26,198.49 -441.22,205.69 -437.17,212.88 -421.17,220.27 -405.17,227.66 -365.76,238.40 -326.35,249.15 -264.57,259.72 -202.80,270.28 -121.92,277.07 -41.04,283.86 46.64,286.75 134.34,289.64 225.89,290.88 317.45,292.11 409.26,292.63 501.07,293.16 587.01,293.38 672.95,293.61 746.62,290.48 820.29,287.36 879.04,280.07 937.79,272.78 987.89,261.44 1037.99,250.10 1068.43,241.16 1098.88,232.23 1116.25,225.27 1133.62,218.32 1142.71,213.59 1151.80,208.87 1157.04,205.91 1162.29,202.96 1166.05,200.70 1169.80,198.44 1170.90,198.12 1171.99,197.81 1173.13,197.87 1174.26,197.92 1175.32,198.34 1176.38,198.75 1177.25,199.48 1178.12,200.21 1178.71,201.18 1179.31,202.15 1179.56,203.26 1179.81,204.37 1179.69,205.50 1179.58,206.63 1179.11,207.67 1178.64,208.70 1177.86,209.53 1177.08,210.36 1176.08,210.90 1175.08,211.44 1173.96,211.63 1172.84,211.82 1171.72,211.65 1170.59,211.47 1169.58,210.94 1168.58,210.42 1167.79,209.60 1167.00,208.77 1166.52,207.75 1166.04,206.72 1165.91,205.59 1165.78,204.46 1166.01,203.35 1166.25,202.23 1166.83,201.26 1167.41,200.28 1168.27,199.54 1169.13,198.80 1170.19,198.37 1171.24,197.94 1172.38,197.87 1173.51,197.80 1174.61,198.10 1175.71,198.40 1176.65,199.03 1177.60,199.66 1178.29,200.56 1178.98,201.47 1179.35,202.54 1179.72,203.62 1179.73,204.75 1179.74,205.89 1179.38,206.97 1179.02,208.05 1178.34,208.96 1177.66,209.87 1176.72,210.51 1175.78,211.16 1175.79,211.15 1175.79,211.15 1171.65,212.61 1167.51,214.06 1162.07,216.13 1156.63,218.20 1147.08,223.14 1137.52,228.07 1119.68,235.19 1101.84,242.31 1071.08,251.33 1040.31,260.35 989.70,271.78 939.09,283.22 879.91,290.54 820.74,297.87 746.83,301.00 672.93,304.13 586.97,303.91 501.01,303.69 409.16,303.16 317.31,302.64 225.65,301.41 133.99,300.19 46.03,297.29 -41.93,294.39 -123.25,287.55 -204.58,280.72 -266.86,270.05 -329.14,259.38 -369.49,248.31 -409.84,237.23 -427.81,227.90 -445.77,218.58 -450.23,208.10 -454.68,197.61 -447.66,185.67 -440.65,173.72 -424.51,162.96 -408.38,152.20 -379.83,138.27 -351.29,124.35 -310.33,106.89 -269.37,89.43 -224.01,71.22 -178.64,53.00 -140.94,37.21 -103.23,21.41 -79.45,12.54 -55.67,3.67 -40.78,-0.73 -25.89,-5.15 -17.55,-6.24 -9.20,-7.34 -4.60,-6.93 0,-6.52 0.78,-6.43 1.56,-6.33 2.29,-6.05 3.03,-5.78 3.68,-5.33 4.32,-4.88 4.85,-4.29 5.37,-3.70 5.73,-3.01 6.10,-2.31 6.29,-1.55 6.48,-0.78 6.48,0.00 6.48,0.78 6.29,1.55 6.10,2.31 5.73,3.01 5.37,3.70 4.85,4.29 4.32,4.88 3.68,5.33 3.03,5.78 2.29,6.05 1.56,6.33 0.78,6.43 -0.00,6.52 -0.00,6.52 L 0,6.52 Z"></path></g><g transform="translate(334.800048828125 114) rotate(0 35.20001220703125 104)" stroke="none"><path fill="#fc1f15" d="M 7.77,0 Q 7.77,0 7.44,13.79 7.10,27.59 6.85,41.74 6.60,55.88 6.41,69.72 6.23,83.55 6.10,96.33 5.96,109.11 5.86,120.06 5.77,131.01 5.74,139.34 5.71,147.68 6.19,152.14 6.67,156.60 7.47,161.96 8.28,167.32 8.78,171.60 9.27,175.88 9.70,180.58 10.13,185.29 10.48,190.07 10.83,194.85 11.05,197.42 11.27,199.99 11.11,201.34 10.94,202.69 10.46,203.96 9.98,205.23 9.21,206.35 8.44,207.47 7.42,208.37 6.40,209.27 5.20,209.90 3.99,210.54 2.67,210.86 1.35,211.19 -0.00,211.19 -1.35,211.19 -2.67,210.86 -3.99,210.53 -5.20,209.90 -6.40,209.27 -7.42,208.37 -8.44,207.47 -9.21,206.35 -9.98,205.23 -10.46,203.96 -10.94,202.69 -11.11,201.34 -11.27,199.99 -10.58,191.01 -9.90,182.04 -7.76,173.91 -5.62,165.78 -2.64,158.35 0.32,150.92 3.51,144.44 6.69,137.96 9.98,132.53 13.28,127.10 17.00,123.08 20.72,119.06 25.44,115.75 30.17,112.44 34.24,109.78 38.31,107.11 42.47,105.09 46.64,103.06 52.40,101.46 58.16,99.85 63.68,101.81 69.19,103.77 73.36,111.40 77.54,119.04 78.39,127.28 79.25,135.53 79.03,144.95 78.80,154.37 78.48,163.36 78.15,172.36 76.44,181.78 74.72,191.21 74.58,197.59 74.44,203.96 74.43,206.29 74.42,208.62 74.09,210.02 73.76,211.41 73.00,212.62 72.24,213.84 71.14,214.75 70.03,215.65 68.69,216.16 67.35,216.67 65.92,216.72 64.49,216.78 63.12,216.37 61.74,215.96 60.57,215.14 59.40,214.32 58.55,213.16 57.71,212.01 57.27,210.64 56.84,209.28 56.86,207.85 56.89,206.42 57.37,205.07 57.85,203.72 58.73,202.59 59.62,201.47 60.82,200.68 62.01,199.90 63.40,199.54 64.79,199.18 66.22,199.28 67.64,199.38 68.96,199.94 70.29,200.49 71.36,201.43 72.44,202.38 73.15,203.62 73.87,204.86 74.16,206.26 74.44,207.67 74.26,209.09 74.08,210.51 73.46,211.80 72.84,213.09 71.83,214.11 70.83,215.13 69.55,215.78 68.28,216.43 66.86,216.64 65.44,216.84 64.04,216.59 62.63,216.33 61.37,215.64 60.12,214.95 59.15,213.89 58.19,212.84 57.61,211.53 57.03,210.22 56.90,208.79 56.77,207.37 56.77,207.37 56.77,207.37 57.63,202.44 58.50,197.52 59.42,193.30 60.34,189.08 61.25,180.85 62.15,172.62 61.50,163.88 60.85,155.14 59.86,146.64 58.87,138.14 58.62,129.95 58.37,121.76 53.65,123.03 48.94,124.30 44.92,126.65 40.91,129.01 34.87,133.00 28.82,137.00 25.96,141.38 23.11,145.76 20.48,151.55 17.85,157.34 15.80,163.62 13.76,169.90 12.75,176.72 11.74,183.54 11.50,191.77 11.27,199.99 11.11,201.34 10.94,202.69 10.46,203.96 9.98,205.23 9.21,206.35 8.44,207.47 7.42,208.37 6.40,209.27 5.20,209.90 3.99,210.53 2.67,210.86 1.35,211.19 0.00,211.19 -1.35,211.19 -2.67,210.86 -3.99,210.54 -5.20,209.90 -6.40,209.27 -7.42,208.37 -8.44,207.47 -9.21,206.35 -9.98,205.23 -10.46,203.96 -10.94,202.69 -11.11,201.34 -11.27,199.99 -11.05,197.42 -10.83,194.85 -10.48,190.07 -10.13,185.29 -9.70,180.58 -9.27,175.88 -8.78,171.60 -8.28,167.32 -7.47,161.96 -6.67,156.60 -6.19,152.14 -5.71,147.68 -5.74,139.34 -5.77,131.01 -5.86,120.06 -5.96,109.11 -6.10,96.33 -6.23,83.55 -6.41,69.72 -6.60,55.88 -6.85,41.74 -7.10,27.59 -7.44,13.79 -7.77,0 -7.66,-0.93 -7.55,-1.86 -7.22,-2.73 -6.88,-3.61 -6.35,-4.38 -5.82,-5.15 -5.12,-5.78 -4.41,-6.40 -3.58,-6.83 -2.75,-7.27 -1.84,-7.49 -0.93,-7.72 0.00,-7.72 0.93,-7.72 1.84,-7.49 2.75,-7.27 3.58,-6.83 4.41,-6.40 5.12,-5.77 5.82,-5.15 6.35,-4.38 6.88,-3.61 7.22,-2.73 7.55,-1.86 7.66,-0.93 7.77,0.00 7.77,0.00 L 7.77,0 Z"></path></g><g transform="translate(461.2000732421875 277.20001220703125) rotate(0 66.39996337890625 0)" stroke="none"><path fill="#fc1f15" d="M -1.27,-8.60 Q -1.27,-8.60 11.21,-9.99 23.69,-11.38 37.03,-14.08 50.37,-16.77 61.82,-20.50 73.27,-24.22 80.92,-27.14 88.57,-30.05 93.01,-33.20 97.46,-36.35 98.49,-41.55 99.52,-46.75 89.06,-46.38 78.60,-46.02 71.20,-46.51 63.80,-47.00 55.86,-47.04 47.92,-47.09 43.77,-45.14 39.62,-43.20 34.44,-38.19 29.26,-33.18 27.11,-29.03 24.96,-24.88 23.22,-20.48 21.47,-16.09 20.23,-9.04 18.99,-2.00 19.66,6.18 20.33,14.38 22.61,21.50 24.89,28.63 28.97,31.29 33.04,33.95 41.62,36.13 50.20,38.31 58.46,41.02 66.73,43.72 75.06,45.02 83.40,46.31 92.52,47.08 101.64,47.84 109.23,48.10 116.82,48.36 121.44,48.10 126.05,47.83 129.48,47.56 132.91,47.30 134.30,47.54 135.69,47.79 136.92,48.47 138.15,49.14 139.11,50.18 140.06,51.21 140.64,52.50 141.21,53.78 141.34,55.18 141.47,56.59 141.15,57.96 140.83,59.33 140.09,60.52 139.35,61.72 138.26,62.61 137.18,63.51 135.86,64.01 134.55,64.52 133.14,64.57 131.73,64.63 130.38,64.23 129.03,63.84 127.88,63.03 126.73,62.23 125.89,61.09 125.05,59.96 124.62,58.62 124.19,57.28 124.21,55.88 124.23,54.47 124.70,53.14 125.17,51.81 126.03,50.71 126.90,49.60 128.08,48.82 129.25,48.05 130.61,47.69 131.98,47.33 133.38,47.43 134.78,47.53 136.08,48.07 137.38,48.60 138.44,49.53 139.50,50.46 140.21,51.67 140.92,52.89 141.20,54.27 141.49,55.65 141.32,57.04 141.14,58.44 140.53,59.71 139.93,60.98 138.94,61.99 137.96,62.99 136.71,63.64 135.46,64.28 134.06,64.49 132.67,64.69 132.67,64.69 132.68,64.69 129.25,64.33 125.83,63.97 121.18,63.58 116.53,63.18 108.79,63.14 101.06,63.10 91.45,63.16 81.84,63.22 72.09,62.85 62.33,62.48 54.00,61.26 45.67,60.05 38.58,58.90 31.50,57.75 27.15,56.29 22.81,54.83 18.69,52.37 14.57,49.92 11.68,46.73 8.79,43.54 5.55,35.76 2.31,27.97 0.98,22.73 -0.34,17.49 -1.23,10.98 -2.12,4.46 -1.71,-0.07 -1.31,-4.62 -0.38,-9.98 0.55,-15.34 2.20,-19.52 3.85,-23.69 6.24,-28.89 8.64,-34.09 11.92,-39.53 15.19,-44.98 19.66,-49.52 24.13,-54.07 28.98,-56.39 33.83,-58.70 40.41,-60.75 46.99,-62.80 55.63,-63.58 64.28,-64.36 72.09,-64.43 79.90,-64.50 87.59,-64.14 95.29,-63.78 103.13,-61.58 110.97,-59.37 113.94,-51.35 116.91,-43.33 114.29,-37.29 111.66,-31.25 108.31,-27.97 104.95,-24.70 99.13,-21.52 93.30,-18.34 85.45,-15.04 77.60,-11.73 65.57,-7.32 53.53,-2.91 39.76,0.55 25.98,4.02 13.62,6.31 1.27,8.60 0.22,8.63 -0.82,8.66 -1.84,8.43 -2.87,8.21 -3.81,7.75 -4.75,7.28 -5.55,6.61 -6.36,5.93 -6.97,5.09 -7.59,4.24 -7.99,3.27 -8.39,2.30 -8.54,1.26 -8.69,0.22 -8.60,-0.81 -8.50,-1.86 -8.15,-2.85 -7.80,-3.84 -7.23,-4.72 -6.66,-5.59 -5.89,-6.31 -5.12,-7.03 -4.21,-7.54 -3.29,-8.05 -2.28,-8.33 -1.27,-8.60 -1.27,-8.60 L -1.27,-8.60 Z"></path></g><g transform="translate(666 211.60003662109375) rotate(0 -4 66.39999389648438)" stroke="none"><path fill="#fc1f15" d="M 5.22,6.96 Q 5.22,6.96 -2.41,12.11 -10.04,17.27 -18.15,22.22 -26.25,27.18 -32.14,31.52 -38.04,35.87 -41.84,40.23 -45.65,44.60 -48.29,49.31 -50.94,54.01 -52.38,62.24 -53.83,70.48 -54.03,75.08 -54.24,79.69 -53.63,85.52 -53.02,91.34 -50.84,96.14 -48.65,100.93 -44.09,105.71 -39.53,110.49 -33.10,114.47 -26.67,118.45 -18.91,120.65 -11.15,122.86 -1.56,123.94 8.02,125.03 16.76,125.58 25.51,126.13 32.91,126.18 40.31,126.23 45.85,125.62 51.40,125.01 52.39,124.27 53.39,123.53 54.68,123.31 55.97,123.10 57.26,123.30 58.56,123.51 59.72,124.12 60.88,124.73 61.78,125.68 62.68,126.63 63.24,127.82 63.79,129.00 63.94,130.31 64.08,131.61 63.81,132.89 63.53,134.17 62.86,135.29 62.18,136.42 61.19,137.27 60.19,138.12 58.98,138.61 57.76,139.10 56.45,139.17 55.14,139.25 53.88,138.90 52.62,138.56 51.53,137.82 50.44,137.09 49.65,136.05 48.85,135.01 48.43,133.77 48.01,132.53 48.00,131.22 48.00,129.91 48.41,128.67 48.83,127.42 49.62,126.38 50.41,125.33 51.49,124.59 52.57,123.85 53.83,123.50 55.10,123.15 56.40,123.21 57.71,123.28 58.93,123.76 60.15,124.24 61.15,125.09 62.15,125.93 62.83,127.05 63.51,128.18 63.80,129.45 64.08,130.73 63.94,132.04 63.80,133.34 63.26,134.53 62.71,135.72 61.81,136.67 60.91,137.63 59.76,138.25 58.60,138.86 58.60,138.86 58.60,138.86 55.03,139.68 51.46,140.49 45.74,139.66 40.01,138.84 32.48,138.54 24.94,138.23 15.87,137.96 6.80,137.69 -3.88,136.82 -14.57,135.96 -24.21,133.58 -33.86,131.21 -42.40,126.57 -50.94,121.93 -57.80,115.10 -64.65,108.26 -67.69,100.88 -70.73,93.49 -71.58,85.82 -72.44,78.15 -71.75,72.65 -71.06,67.14 -69.71,61.22 -68.35,55.29 -66.29,50.55 -64.23,45.80 -60.37,40.11 -56.51,34.41 -51.49,29.46 -46.48,24.51 -40.29,19.91 -34.09,15.31 -26.74,10.06 -19.39,4.80 -12.30,-1.07 -5.22,-6.96 -4.31,-7.48 -3.40,-8.01 -2.39,-8.30 -1.38,-8.59 -0.33,-8.63 0.70,-8.67 1.73,-8.46 2.76,-8.25 3.71,-7.80 4.65,-7.35 5.47,-6.68 6.28,-6.02 6.91,-5.18 7.54,-4.34 7.95,-3.37 8.36,-2.41 8.53,-1.37 8.69,-0.34 8.61,0.70 8.52,1.74 8.19,2.74 7.86,3.73 7.29,4.62 6.73,5.51 5.97,6.23 5.22,6.96 5.22,6.96 L 5.22,6.96 Z"></path></g><g transform="translate(766.800048828125 32.399993896484375) rotate(0 -4.79998779296875 159.1999969482422)" stroke="none"><path fill="#fc1f15" d="M 6.24,0 Q 6.24,0 6.11,9.2 5.97,18.4 5.87,30.13 5.77,41.86 5.70,55.58 5.63,69.31 5.58,84.34 5.53,99.37 5.49,114.04 5.45,128.71 5.42,141.84 5.39,154.98 5.37,166.08 5.35,177.18 5.34,186.04 5.33,194.90 5.31,204.64 5.30,214.39 5.62,221.29 5.93,228.19 6.35,233.43 6.78,238.66 7.50,245.37 8.23,252.08 8.95,257.72 9.68,263.35 10.22,268.50 10.75,273.64 11.19,279.03 11.62,284.42 11.06,289.63 10.50,294.85 9.34,299.14 8.19,303.43 6.75,310.39 5.31,317.35 3.34,321.27 1.37,325.18 0.00,326.76 -1.36,328.33 -3.17,329.38 -4.97,330.44 -7.01,330.86 -9.05,331.29 -11.13,331.03 -13.20,330.78 -15.08,329.88 -16.97,328.98 -18.46,327.53 -19.96,326.08 -20.92,324.22 -21.87,322.36 -22.18,320.30 -22.50,318.24 -22.13,316.18 -21.77,314.13 -20.77,312.29 -19.77,310.46 -18.24,309.04 -16.70,307.63 -14.80,306.78 -12.89,305.92 -10.81,305.72 -8.74,305.52 -6.70,306.00 -4.67,306.47 -2.90,307.57 -1.12,308.67 0.20,310.27 1.53,311.88 2.28,313.83 3.03,315.78 3.12,317.86 3.20,319.95 2.62,321.95 2.04,323.96 0.84,325.67 -0.34,327.38 -2.02,328.63 -3.69,329.87 -5.68,330.51 -7.67,331.15 -9.75,331.13 -11.84,331.10 -13.81,330.41 -15.78,329.72 -17.43,328.43 -19.07,327.15 -20.22,325.41 -21.37,323.67 -21.90,321.65 -22.44,319.63 -22.30,317.55 -22.16,315.46 -21.36,313.53 -20.57,311.61 -20.57,311.61 -20.57,311.61 -19.45,309.12 -18.34,306.63 -16.58,300.35 -14.83,294.07 -13.22,289.24 -11.62,284.42 -11.19,279.03 -10.75,273.64 -10.22,268.50 -9.68,263.35 -8.95,257.72 -8.23,252.08 -7.50,245.37 -6.78,238.66 -6.35,233.43 -5.93,228.19 -5.62,221.29 -5.30,214.39 -5.31,204.64 -5.33,194.90 -5.34,186.04 -5.35,177.18 -5.37,166.08 -5.39,154.98 -5.42,141.84 -5.45,128.71 -5.49,114.04 -5.53,99.37 -5.58,84.34 -5.63,69.31 -5.70,55.58 -5.77,41.86 -5.87,30.13 -5.97,18.4 -6.11,9.2 -6.24,0 -6.15,-0.74 -6.06,-1.49 -5.80,-2.19 -5.53,-2.90 -5.10,-3.52 -4.67,-4.14 -4.11,-4.64 -3.54,-5.14 -2.88,-5.49 -2.21,-5.84 -1.48,-6.02 -0.75,-6.20 0.00,-6.20 0.75,-6.20 1.48,-6.02 2.21,-5.84 2.88,-5.49 3.55,-5.14 4.11,-4.64 4.67,-4.14 5.10,-3.52 5.53,-2.90 5.80,-2.19 6.06,-1.49 6.15,-0.74 6.24,0.00 6.24,0.00 L 6.24,0 Z"></path></g><g transform="translate(766.800048828125 256.4000244140625) rotate(0 57.5999755859375 -95.20001220703125)" stroke="none"><path fill="#fc1f15" d="M -6.33,-3.16 Q -6.33,-3.16 -3.15,-9.62 0.01,-16.09 5.84,-25.77 11.67,-35.45 21.12,-50.57 30.58,-65.69 40.18,-80.39 49.78,-95.09 59.42,-109.59 69.05,-124.09 76.78,-137.01 84.50,-149.94 91.11,-160.15 97.71,-170.37 101.16,-176.92 104.62,-183.47 105.40,-185.54 106.18,-187.62 106.65,-188.26 107.12,-188.90 107.73,-189.42 108.34,-189.93 109.05,-190.28 109.77,-190.64 110.55,-190.81 111.33,-190.98 112.12,-190.96 112.92,-190.94 113.69,-190.73 114.46,-190.52 115.15,-190.13 115.85,-189.75 116.43,-189.20 117.02,-188.66 117.45,-187.99 117.89,-187.32 118.15,-186.57 118.42,-185.82 118.49,-185.03 118.57,-184.23 118.46,-183.44 118.34,-182.66 118.04,-181.92 117.74,-181.18 114.91,-177.09 112.08,-173.01 111.19,-171.35 110.30,-169.70 109.39,-168.81 108.47,-167.93 107.32,-167.38 106.17,-166.84 104.91,-166.69 103.64,-166.54 102.40,-166.80 101.15,-167.06 100.06,-167.71 98.96,-168.35 98.13,-169.32 97.30,-170.28 96.81,-171.45 96.33,-172.63 96.25,-173.90 96.17,-175.17 96.50,-176.40 96.83,-177.63 97.53,-178.69 98.23,-179.75 99.24,-180.53 100.25,-181.31 101.45,-181.73 102.65,-182.14 103.92,-182.16 105.19,-182.17 106.40,-181.77 107.61,-181.38 108.63,-180.62 109.65,-179.86 110.38,-178.81 111.10,-177.76 111.45,-176.54 111.80,-175.32 111.75,-174.05 111.69,-172.78 111.23,-171.59 110.77,-170.40 109.96,-169.43 109.14,-168.45 108.06,-167.78 106.97,-167.12 105.73,-166.83 104.49,-166.55 103.23,-166.67 101.96,-166.80 100.80,-167.32 99.64,-167.85 98.71,-168.71 97.78,-169.58 97.17,-170.70 96.57,-171.82 96.35,-173.07 96.13,-174.32 96.33,-175.58 96.52,-176.84 97.11,-177.97 97.69,-179.10 97.69,-179.10 97.69,-179.09 101.94,-183.35 106.18,-187.62 106.65,-188.26 107.12,-188.90 107.73,-189.42 108.34,-189.93 109.05,-190.28 109.77,-190.64 110.55,-190.81 111.33,-190.98 112.12,-190.96 112.92,-190.94 113.69,-190.73 114.46,-190.52 115.15,-190.13 115.85,-189.75 116.43,-189.20 117.02,-188.66 117.45,-187.99 117.89,-187.33 118.15,-186.57 118.42,-185.82 118.49,-185.03 118.57,-184.23 118.46,-183.45 118.34,-182.66 118.04,-181.92 117.74,-181.18 116.31,-179.47 114.88,-177.76 110.96,-171.07 107.04,-164.39 100.63,-154.29 94.22,-144.19 86.49,-130.96 78.75,-117.73 69.31,-103.17 59.88,-88.60 50.59,-73.88 41.29,-59.15 32.26,-44.00 23.24,-28.84 18.05,-19.25 12.86,-9.66 9.59,-3.25 6.33,3.16 5.86,3.87 5.38,4.58 4.76,5.16 4.13,5.74 3.38,6.15 2.63,6.56 1.81,6.78 0.99,7.00 0.13,7.02 -0.71,7.04 -1.54,6.85 -2.37,6.66 -3.14,6.28 -3.90,5.90 -4.55,5.35 -5.20,4.79 -5.70,4.10 -6.20,3.41 -6.52,2.62 -6.83,1.82 -6.95,0.98 -7.07,0.13 -6.99,-0.71 -6.90,-1.55 -6.61,-2.36 -6.33,-3.16 -6.33,-3.16 L -6.33,-3.16 Z"></path></g><g transform="translate(765.2000732421875 208.4000244140625) rotate(0 55.199951171875 52.79998779296875)" stroke="none"><path fill="#fc1f15" d="M 9.07,-1.39 Q 9.07,-1.39 10.01,4.57 10.95,10.54 12.55,16.22 14.15,21.90 16.43,28.35 18.70,34.81 22.36,40.71 26.02,46.61 30.03,52.60 34.04,58.59 37.39,63.44 40.74,68.30 43.83,71.69 46.91,75.09 50.38,78.89 53.85,82.70 58.34,85.20 62.84,87.70 66.75,91.62 70.66,95.54 76.87,94.60 83.09,93.66 90.97,92.10 98.86,90.55 103.81,89.66 108.76,88.77 110.73,88.82 112.69,88.87 114.53,89.55 116.38,90.23 117.91,91.46 119.44,92.69 120.49,94.35 121.55,96.00 122.02,97.91 122.50,99.82 122.33,101.77 122.17,103.73 121.40,105.54 120.62,107.34 119.31,108.80 117.99,110.26 116.28,111.23 114.57,112.19 112.65,112.56 110.72,112.93 108.77,112.66 106.82,112.40 105.07,111.52 103.31,110.65 101.92,109.26 100.53,107.87 99.66,106.11 98.79,104.35 98.52,102.40 98.26,100.46 98.63,98.53 99.00,96.60 99.97,94.89 100.94,93.18 102.40,91.87 103.86,90.56 105.67,89.79 107.47,89.01 109.43,88.85 111.39,88.70 113.29,89.17 115.20,89.65 116.85,90.71 118.51,91.76 119.74,93.30 120.97,94.83 121.64,96.67 122.32,98.52 122.37,100.48 122.42,102.44 121.84,104.32 121.27,106.20 120.12,107.79 118.97,109.39 117.38,110.53 115.78,111.68 113.90,112.25 112.02,112.83 112.03,112.82 112.03,112.82 107.84,113.17 103.65,113.52 99.43,114.36 95.21,115.20 89.02,116.27 82.82,117.34 78.17,117.29 73.53,117.23 67.66,116.69 61.80,116.14 57.28,112.97 52.76,109.80 50.22,106.29 47.69,102.77 43.10,98.54 38.51,94.31 35.90,90.24 33.30,86.16 30.03,81.75 26.77,77.34 23.84,72.49 20.92,67.63 16.66,61.60 12.40,55.58 7.41,48.35 2.43,41.12 -0.48,34.01 -3.39,26.90 -5.33,20.13 -7.27,13.37 -8.17,7.38 -9.07,1.39 -9.11,0.29 -9.14,-0.81 -8.91,-1.89 -8.68,-2.98 -8.20,-3.97 -7.72,-4.97 -7.01,-5.82 -6.30,-6.67 -5.41,-7.33 -4.52,-7.99 -3.50,-8.41 -2.48,-8.84 -1.38,-9.01 -0.29,-9.18 0.81,-9.08 1.91,-8.98 2.96,-8.62 4.00,-8.26 4.93,-7.66 5.86,-7.06 6.62,-6.25 7.38,-5.45 7.93,-4.49 8.48,-3.52 8.77,-2.46 9.07,-1.39 9.07,-1.39 L 9.07,-1.39 Z"></path></g><g transform="translate(960.4000244140625 70.80001831054688) rotate(0 68.79998779296875 135.1999969482422)" stroke="none"><path fill="#1971c2" d="M 7.49,-0.70 Q 7.49,-0.70 8.56,14.04 9.64,28.79 10.01,45.84 10.39,62.88 12.30,83.18 14.21,103.48 16.80,122.19 19.40,140.91 21.84,156.71 24.29,172.50 25.32,183.07 26.36,193.64 27.06,200.91 27.76,208.19 28.32,214.08 28.89,219.98 29.68,225.12 30.48,230.26 31.11,235.04 31.75,239.82 32.24,244.35 32.73,248.88 33.22,253.90 33.70,258.92 41.96,258.80 50.21,258.68 63.61,259.70 77.01,260.73 89.83,261.41 102.64,262.09 111.32,262.54 120.00,262.99 124.61,262.68 129.23,262.38 133.44,261.89 137.65,261.40 139.08,261.64 140.52,261.88 141.80,262.57 143.08,263.26 144.08,264.33 145.07,265.39 145.68,266.71 146.28,268.04 146.43,269.49 146.58,270.94 146.26,272.36 145.94,273.78 145.18,275.02 144.42,276.26 143.30,277.20 142.19,278.13 140.83,278.67 139.48,279.20 138.02,279.27 136.57,279.34 135.17,278.94 133.77,278.54 132.57,277.72 131.37,276.89 130.49,275.73 129.62,274.56 129.16,273.18 128.71,271.80 128.71,270.34 128.72,268.88 129.20,267.51 129.67,266.13 130.56,264.98 131.45,263.82 132.66,263.01 133.87,262.20 135.27,261.82 136.68,261.44 138.13,261.53 139.58,261.62 140.93,262.17 142.28,262.71 143.39,263.66 144.49,264.61 145.23,265.86 145.98,267.12 146.28,268.54 146.58,269.96 146.42,271.41 146.25,272.86 145.63,274.17 145.01,275.49 144.00,276.54 143.00,277.59 141.71,278.27 140.41,278.94 138.98,279.17 137.54,279.39 137.54,279.39 137.54,279.39 133.33,278.85 129.11,278.31 124.49,277.94 119.86,277.56 111.14,277.85 102.41,278.14 89.43,278.44 76.45,278.75 61.62,278.88 46.79,279.02 39.72,277.89 32.66,276.76 24.31,272.90 15.95,269.05 13.52,263.98 11.09,258.92 11.57,253.90 12.06,248.88 12.55,244.37 13.03,239.87 13.62,235.20 14.21,230.53 14.77,225.48 15.33,220.43 15.50,214.70 15.68,208.96 15.46,201.88 15.24,194.79 14.12,184.55 12.99,174.31 10.36,158.46 7.73,142.60 4.87,123.66 2.00,104.72 -0.25,84.03 -2.52,63.33 -3.32,46.71 -4.12,30.08 -5.80,15.39 -7.49,0.70 -7.46,-0.20 -7.44,-1.11 -7.20,-1.98 -6.96,-2.86 -6.51,-3.65 -6.07,-4.44 -5.45,-5.10 -4.83,-5.76 -4.07,-6.26 -3.31,-6.75 -2.45,-7.05 -1.60,-7.35 -0.69,-7.43 0.20,-7.52 1.10,-7.38 2.00,-7.25 2.83,-6.91 3.67,-6.56 4.41,-6.02 5.14,-5.49 5.72,-4.79 6.30,-4.10 6.70,-3.28 7.10,-2.47 7.30,-1.58 7.49,-0.70 7.49,-0.70 L 7.49,-0.70 Z"></path></g><g transform="translate(1142.800048828125 168.4000244140625) rotate(0 0 88.79998779296875)" stroke="none"><path fill="#1971c2" d="M 7.70,0 Q 7.70,0 7.37,11.03 7.04,22.07 6.80,33.67 6.56,45.26 6.38,57.09 6.20,68.91 6.07,80.38 5.94,91.84 5.85,101.32 5.75,110.79 5.76,118.96 5.78,127.12 5.99,134.27 6.21,141.42 6.64,145.84 7.08,150.26 7.77,156.29 8.46,162.31 9.13,168.36 9.80,174.42 9.97,176.01 10.13,177.59 9.87,179.21 9.60,180.83 8.83,182.28 8.06,183.73 6.87,184.86 5.68,185.98 4.19,186.67 2.71,187.36 1.08,187.54 -0.54,187.72 -2.15,187.36 -3.75,187.01 -5.15,186.17 -6.56,185.32 -7.62,184.07 -8.68,182.82 -9.29,181.30 -9.89,179.77 -9.98,178.14 -10.07,176.50 -9.63,174.92 -9.19,173.34 -8.27,171.98 -7.35,170.62 -6.05,169.63 -4.74,168.64 -3.19,168.12 -1.63,167.59 0.00,167.59 1.64,167.59 3.19,168.12 4.74,168.64 6.05,169.63 7.35,170.63 8.27,171.98 9.19,173.34 9.63,174.92 10.07,176.50 9.98,178.14 9.89,179.78 9.29,181.30 8.68,182.82 7.62,184.07 6.56,185.32 5.15,186.17 3.74,187.01 2.14,187.36 0.54,187.72 -1.08,187.54 -2.71,187.36 -4.20,186.67 -5.69,185.98 -6.88,184.85 -8.07,183.73 -8.83,182.28 -9.60,180.83 -9.87,179.21 -10.13,177.59 -10.13,177.59 -10.13,177.59 -9.97,176.01 -9.80,174.42 -9.13,168.36 -8.46,162.31 -7.77,156.29 -7.08,150.26 -6.64,145.84 -6.21,141.42 -5.99,134.27 -5.78,127.12 -5.76,118.96 -5.75,110.79 -5.85,101.32 -5.94,91.84 -6.07,80.38 -6.20,68.91 -6.38,57.09 -6.56,45.26 -6.80,33.67 -7.04,22.07 -7.37,11.03 -7.70,0 -7.59,-0.92 -7.48,-1.84 -7.15,-2.71 -6.82,-3.58 -6.29,-4.34 -5.76,-5.10 -5.07,-5.72 -4.37,-6.34 -3.55,-6.77 -2.73,-7.20 -1.83,-7.42 -0.92,-7.64 0.00,-7.64 0.92,-7.64 1.83,-7.42 2.73,-7.20 3.55,-6.77 4.37,-6.34 5.07,-5.72 5.76,-5.10 6.29,-4.34 6.82,-3.58 7.15,-2.71 7.48,-1.84 7.59,-0.92 7.70,0.00 7.70,0.00 L 7.70,0 Z"></path></g><g transform="translate(1104.4000244140625 91.60006713867188) rotate(0 7.20001220703125 20.799972534179688)" stroke="none"><path fill="#1971c2" d="M 9.76,-2.25 Q 9.76,-2.25 11.06,3.71 12.35,9.67 15.74,16.43 19.13,23.18 21.06,28.19 23.00,33.21 23.98,35.27 24.96,37.34 25.37,39.14 25.77,40.93 25.58,42.77 25.38,44.60 24.62,46.28 23.85,47.95 22.59,49.30 21.32,50.64 19.70,51.51 18.07,52.38 16.26,52.68 14.44,52.99 12.62,52.70 10.80,52.41 9.17,51.55 7.53,50.69 6.26,49.36 4.99,48.02 4.21,46.35 3.43,44.68 3.22,42.85 3.02,41.02 3.41,39.22 3.80,37.42 4.74,35.83 5.68,34.25 7.08,33.05 8.49,31.85 10.19,31.17 11.90,30.48 13.74,30.37 15.59,30.26 17.36,30.75 19.14,31.24 20.67,32.27 22.20,33.29 23.32,34.76 24.44,36.22 25.04,37.97 25.63,39.71 25.64,41.55 25.64,43.40 25.06,45.15 24.48,46.90 23.37,48.37 22.26,49.84 20.74,50.88 19.22,51.92 17.44,52.42 15.67,52.92 13.83,52.82 11.99,52.73 10.27,52.05 8.56,51.38 7.15,50.19 5.74,49.00 4.78,47.43 3.83,45.85 3.83,45.85 3.83,45.85 1.83,39.96 -0.16,34.06 -1.28,29.21 -2.39,24.35 -4.61,19.29 -6.83,14.24 -8.30,8.24 -9.76,2.25 -9.89,1.05 -10.01,-0.14 -9.85,-1.34 -9.69,-2.54 -9.24,-3.66 -8.80,-4.78 -8.10,-5.77 -7.40,-6.75 -6.48,-7.54 -5.56,-8.33 -4.49,-8.87 -3.41,-9.42 -2.23,-9.69 -1.05,-9.96 0.14,-9.94 1.35,-9.92 2.52,-9.62 3.69,-9.31 4.75,-8.73 5.81,-8.16 6.70,-7.34 7.59,-6.53 8.26,-5.52 8.94,-4.52 9.35,-3.38 9.76,-2.25 9.76,-2.25 L 9.76,-2.25 Z"></path></g><g transform="translate(1090 74) rotate(0 52.79998779296875 18.400009155273438)" stroke="none"><path fill="#1971c2" d="M -0.80,-10.49 Q -0.80,-10.49 5.18,-10.85 11.16,-11.21 17.71,-11.83 24.26,-12.44 29.20,-14.33 34.14,-16.21 39.34,-17.22 44.54,-18.23 48.93,-19.33 53.32,-20.43 59.43,-22.92 65.54,-25.42 72.93,-26.78 80.32,-28.14 85.49,-28.78 90.66,-29.42 98.13,-26.01 105.60,-22.59 108.54,-18.24 111.48,-13.90 113.08,-9.71 114.68,-5.52 115.45,0.10 116.22,5.74 117.88,10.84 119.54,15.95 119.78,21.28 120.01,26.60 120.10,31.76 120.19,36.91 119.07,44.26 117.94,51.62 115.46,55.61 112.99,59.60 108.14,61.13 103.30,62.65 95.58,63.34 87.87,64.03 82.83,63.83 77.79,63.64 72.44,63.39 67.09,63.14 62.06,62.96 57.03,62.77 51.56,62.82 46.09,62.86 40.49,63.03 34.88,63.21 28.32,63.15 21.76,63.10 16.80,63.89 11.84,64.68 6.54,65.47 1.25,66.25 -0.92,66.10 -3.11,65.95 -5.12,65.11 -7.14,64.27 -8.79,62.82 -10.43,61.38 -11.53,59.49 -12.63,57.60 -13.06,55.46 -13.50,53.32 -13.23,51.15 -12.96,48.98 -12.01,47.01 -11.06,45.04 -9.53,43.47 -8.00,41.91 -6.06,40.91 -4.11,39.92 -1.95,39.60 0.21,39.28 2.36,39.67 4.51,40.06 6.43,41.11 8.34,42.17 9.82,43.78 11.30,45.39 12.19,47.39 13.07,49.38 13.28,51.56 13.48,53.74 12.97,55.87 12.47,57.99 11.31,59.85 10.16,61.71 8.47,63.10 6.78,64.48 4.74,65.26 2.69,66.04 0.51,66.12 -1.67,66.21 -3.77,65.59 -5.86,64.97 -7.65,63.71 -9.44,62.46 -10.74,60.70 -12.03,58.94 -12.70,56.85 -13.37,54.77 -13.33,52.58 -13.30,50.40 -12.56,48.34 -11.83,46.28 -10.48,44.56 -9.13,42.84 -7.30,41.64 -5.47,40.44 -3.36,39.89 -1.24,39.34 -1.24,39.34 -1.25,39.34 0.62,39.21 2.49,39.08 7.00,38.20 11.51,37.32 16.63,36.71 21.74,36.09 28.31,36.04 34.88,35.98 40.48,36.15 46.07,36.32 51.54,36.36 57.00,36.40 62.01,36.20 67.01,36.00 72.30,35.72 77.58,35.44 82.41,35.17 87.23,34.90 93.71,34.11 100.19,33.31 95.59,35.11 90.99,36.91 91.08,31.80 91.16,26.68 90.52,21.63 89.88,16.58 89.06,11.90 88.24,7.23 86.43,2.60 84.63,-2.02 78.38,-0.87 72.14,0.27 64.10,2.20 56.06,4.14 51.55,5.01 47.04,5.88 42.01,6.63 36.98,7.37 30.94,8.43 24.90,9.49 18.82,9.43 12.75,9.37 6.77,9.93 0.80,10.49 -0.46,10.43 -1.72,10.38 -2.94,10.02 -4.16,9.66 -5.25,9.02 -6.35,8.38 -7.26,7.50 -8.17,6.62 -8.85,5.55 -9.52,4.47 -9.92,3.27 -10.31,2.06 -10.41,0.80 -10.51,-0.46 -10.30,-1.71 -10.09,-2.96 -9.59,-4.13 -9.09,-5.29 -8.32,-6.30 -7.56,-7.31 -6.57,-8.11 -5.59,-8.91 -4.44,-9.45 -3.29,-9.99 -2.05,-10.24 -0.80,-10.49 -0.80,-10.49 L -0.80,-10.49 Z"></path></g><g transform="translate(1165.2000732421875 64.39999389648438) rotate(0 -13.60003662109375 29.60003662109375)" stroke="none"><path fill="#1971c2" d="M 9.99,2.30 Q 9.99,2.30 8.51,8.27 7.03,14.24 4.88,19.85 2.72,25.47 0.39,30.25 -1.92,35.03 -5.44,41.54 -8.95,48.04 -11.21,53.35 -13.46,58.67 -14.70,61.20 -15.94,63.73 -16.96,65.41 -17.98,67.08 -19.48,68.35 -20.98,69.61 -22.81,70.33 -24.63,71.05 -26.59,71.15 -28.55,71.25 -30.44,70.72 -32.33,70.19 -33.95,69.08 -35.57,67.97 -36.75,66.40 -37.94,64.84 -38.55,62.97 -39.17,61.11 -39.17,59.15 -39.16,57.19 -38.52,55.33 -37.89,53.47 -36.70,51.91 -35.50,50.35 -33.87,49.26 -32.25,48.16 -30.35,47.65 -28.46,47.13 -26.50,47.24 -24.54,47.36 -22.72,48.09 -20.90,48.83 -19.41,50.10 -17.92,51.38 -16.91,53.06 -15.91,54.75 -15.49,56.67 -15.08,58.59 -15.30,60.54 -15.52,62.49 -16.35,64.27 -17.18,66.04 -18.54,67.46 -19.89,68.88 -21.63,69.79 -23.37,70.71 -25.31,71.02 -27.24,71.33 -29.18,71.00 -31.12,70.68 -32.85,69.75 -34.58,68.82 -35.92,67.39 -37.26,65.96 -38.08,64.18 -38.90,62.39 -39.10,60.44 -39.31,58.49 -38.88,56.57 -38.45,54.66 -38.45,54.66 -38.45,54.66 -34.71,50.20 -30.98,45.73 -29.28,41.17 -27.58,36.61 -23.95,31.14 -20.32,25.67 -18.21,21.74 -16.10,17.81 -14.33,13.74 -12.55,9.67 -11.27,3.68 -9.99,-2.30 -9.57,-3.46 -9.15,-4.63 -8.46,-5.65 -7.77,-6.68 -6.86,-7.52 -5.95,-8.35 -4.86,-8.94 -3.77,-9.53 -2.58,-9.84 -1.38,-10.16 -0.15,-10.18 1.08,-10.19 2.29,-9.92 3.49,-9.64 4.59,-9.08 5.70,-8.52 6.63,-7.72 7.57,-6.91 8.29,-5.90 9.01,-4.90 9.46,-3.75 9.92,-2.60 10.08,-1.37 10.25,-0.15 10.12,1.07 9.99,2.30 9.99,2.30 L 9.99,2.30 Z"></path></g><g transform="translate(1094.800048828125 69.20001220703125) rotate(0 56 24)" stroke="none"><path fill="#1971c2" d="M 2.77,-9.00 Q 2.77,-9.00 8.74,-7.13 14.71,-5.25 23.06,-1.03 31.41,3.18 38.34,6.19 45.26,9.21 49.70,10.61 54.14,12.00 60.14,14.29 66.13,16.57 70.31,18.50 74.49,20.42 79.31,22.41 84.14,24.40 89.30,26.75 94.45,29.11 100.93,31.23 107.42,33.35 112.73,35.97 118.04,38.59 119.39,39.80 120.73,41.01 121.62,42.59 122.50,44.17 122.84,45.94 123.17,47.72 122.93,49.51 122.68,51.31 121.87,52.93 121.06,54.54 119.78,55.82 118.49,57.10 116.87,57.90 115.25,58.69 113.45,58.93 111.66,59.17 109.89,58.83 108.11,58.48 106.54,57.59 104.96,56.69 103.76,55.34 102.56,53.99 101.85,52.33 101.13,50.66 100.99,48.86 100.85,47.06 101.29,45.30 101.73,43.55 102.71,42.03 103.69,40.50 105.11,39.37 106.52,38.24 108.22,37.63 109.92,37.01 111.73,36.96 113.54,36.92 115.26,37.45 116.99,37.99 118.46,39.05 119.93,40.11 120.98,41.58 122.03,43.05 122.55,44.79 123.08,46.52 123.03,48.33 122.97,50.13 122.34,51.83 121.71,53.53 120.58,54.93 119.44,56.34 117.91,57.31 116.38,58.28 114.63,58.71 112.87,59.14 111.07,58.99 109.26,58.84 107.60,58.12 105.94,57.40 105.95,57.40 105.95,57.40 104.41,56.22 102.86,55.04 98.74,52.89 94.62,50.75 90.33,49.01 86.04,47.27 81.25,45.02 76.46,42.76 67.89,38.58 59.31,34.40 53.68,31.10 48.04,27.80 43.68,25.83 39.32,23.85 32.03,21.09 24.75,18.34 16.97,15.48 9.20,12.61 3.21,10.81 -2.77,9.00 -3.80,8.54 -4.84,8.08 -5.74,7.38 -6.63,6.68 -7.34,5.79 -8.04,4.90 -8.51,3.86 -8.98,2.83 -9.19,1.71 -9.40,0.60 -9.33,-0.53 -9.27,-1.66 -8.94,-2.75 -8.60,-3.83 -8.02,-4.81 -7.43,-5.78 -6.63,-6.59 -5.83,-7.39 -4.86,-7.98 -3.89,-8.58 -2.81,-8.92 -1.73,-9.26 -0.59,-9.33 0.53,-9.40 1.65,-9.20 2.77,-9.00 2.77,-9.00 L 2.77,-9.00 Z"></path></g><g transform="translate(1358.800048828125 141.20001220703125) rotate(0 -69.5999755859375 93.60000610351562)" stroke="none"><path fill="#1971c2" d="M -1.32,7.94 Q -1.32,7.94 -9.54,6.22 -17.76,4.50 -26.42,3.67 -35.07,2.84 -46.10,2.39 -57.13,1.93 -66.24,3.90 -75.34,5.87 -82.74,8.85 -90.15,11.82 -95.75,15.48 -101.34,19.14 -106.03,22.37 -110.71,25.59 -100.03,32.65 -89.34,39.70 -72.97,44.27 -56.60,48.84 -36.36,53.21 -16.12,57.58 2.69,61.86 21.52,66.13 33.20,68.93 44.87,71.74 50.98,73.04 57.09,74.34 60.14,75.54 63.18,76.74 64.03,77.08 64.87,77.42 65.61,77.95 66.35,78.49 66.94,79.18 67.53,79.88 67.94,80.69 68.34,81.51 68.54,82.40 68.74,83.29 68.72,84.20 68.70,85.11 68.47,85.99 68.23,86.87 67.79,87.67 67.35,88.47 66.73,89.14 66.11,89.81 65.35,90.31 64.59,90.81 63.73,91.11 62.87,91.42 61.96,91.51 61.06,91.60 60.16,91.47 59.25,91.34 57.54,95.69 55.83,100.04 44.26,108.30 32.69,116.55 16.25,126.39 -0.19,136.23 -20.27,145.53 -40.35,154.82 -61.47,162.01 -82.59,169.19 -103.21,174.09 -123.83,178.99 -141.26,182.87 -158.69,186.75 -170.62,189.74 -182.54,192.74 -188.05,194.48 -193.56,196.21 -197.12,197.10 -200.69,197.98 -201.58,198.05 -202.47,198.11 -203.34,197.96 -204.22,197.81 -205.04,197.45 -205.86,197.10 -206.56,196.56 -207.27,196.01 -207.83,195.32 -208.38,194.62 -208.76,193.82 -209.13,193.01 -209.30,192.13 -209.47,191.26 -209.43,190.37 -209.39,189.48 -209.13,188.62 -208.88,187.77 -208.42,187.00 -207.97,186.24 -207.35,185.60 -206.72,184.96 -205.97,184.49 -205.21,184.02 -204.36,183.75 -203.52,183.48 -198.38,181.01 -193.25,178.54 -190.55,177.67 -187.85,176.80 -186.39,176.67 -184.92,176.54 -183.50,176.88 -182.07,177.23 -180.82,178.01 -179.58,178.79 -178.65,179.93 -177.72,181.07 -177.21,182.44 -176.69,183.82 -176.64,185.29 -176.59,186.76 -177.01,188.16 -177.43,189.57 -178.28,190.77 -179.13,191.97 -180.31,192.84 -181.50,193.70 -182.90,194.14 -184.30,194.58 -185.77,194.56 -187.24,194.53 -188.62,194.03 -190.01,193.53 -191.16,192.62 -192.31,191.71 -193.11,190.48 -193.91,189.24 -194.28,187.82 -194.64,186.40 -194.53,184.93 -194.42,183.47 -193.85,182.11 -193.28,180.76 -192.31,179.66 -191.34,178.56 -190.06,177.82 -188.79,177.09 -187.35,176.81 -185.91,176.52 -184.45,176.71 -182.99,176.89 -181.67,177.54 -180.35,178.18 -179.30,179.21 -178.26,180.24 -177.59,181.56 -176.93,182.87 -176.72,184.32 -176.51,185.78 -176.78,187.22 -177.05,188.67 -177.76,189.95 -178.48,191.23 -179.56,192.22 -180.65,193.21 -182.00,193.80 -183.34,194.39 -183.34,194.39 -183.34,194.39 -187.27,195.27 -191.20,196.16 -195.94,197.07 -200.69,197.98 -201.58,198.05 -202.47,198.11 -203.34,197.96 -204.22,197.81 -205.04,197.45 -205.85,197.10 -206.56,196.56 -207.27,196.01 -207.83,195.32 -208.38,194.62 -208.76,193.82 -209.13,193.01 -209.30,192.13 -209.47,191.26 -209.43,190.37 -209.39,189.48 -209.13,188.63 -208.88,187.77 -208.42,187.00 -207.97,186.24 -207.35,185.60 -206.73,184.96 -205.97,184.49 -205.21,184.02 -204.36,183.75 -203.52,183.48 -199.96,183.71 -196.41,183.95 -190.81,183.10 -185.20,182.25 -173.15,179.16 -161.09,176.07 -143.75,172.13 -126.41,168.19 -106.34,163.33 -86.27,158.47 -65.77,151.37 -45.27,144.27 -25.86,135.09 -6.45,125.92 9.39,116.11 25.25,106.31 35.57,98.65 45.88,90.99 54.53,83.86 63.18,76.74 64.03,77.08 64.87,77.42 65.61,77.95 66.35,78.49 66.94,79.18 67.53,79.88 67.94,80.69 68.34,81.51 68.54,82.40 68.74,83.29 68.72,84.20 68.70,85.11 68.47,85.99 68.23,86.87 67.79,87.67 67.35,88.47 66.73,89.14 66.11,89.81 65.35,90.31 64.59,90.81 63.73,91.11 62.87,91.42 61.97,91.51 61.06,91.60 60.16,91.47 59.25,91.34 56.38,89.36 53.50,87.37 47.84,85.51 42.18,83.64 30.50,81.16 18.82,78.68 -0.00,74.85 -18.83,71.02 -39.55,67.15 -60.28,63.27 -77.52,59.27 -94.76,55.27 -106.58,51.44 -118.40,47.60 -123.16,42.19 -127.91,36.78 -128.01,31.32 -128.12,25.85 -123.07,19.78 -118.01,13.70 -112.92,11.05 -107.82,8.39 -101.22,4.70 -94.62,1.01 -86.32,-2.47 -78.02,-5.96 -67.48,-8.38 -56.94,-10.80 -45.57,-10.75 -34.19,-10.71 -24.77,-10.36 -15.35,-10.02 -7.01,-8.98 1.32,-7.94 2.25,-7.66 3.18,-7.39 4.02,-6.90 4.86,-6.41 5.56,-5.74 6.25,-5.06 6.77,-4.24 7.28,-3.42 7.59,-2.50 7.89,-1.57 7.96,-0.61 8.04,0.35 7.88,1.31 7.72,2.27 7.34,3.16 6.95,4.05 6.37,4.82 5.78,5.60 5.02,6.21 4.27,6.82 3.39,7.23 2.51,7.64 1.56,7.83 0.61,8.02 -0.35,7.98 -1.32,7.94 -1.32,7.94 L -1.32,7.94 Z"></path></g><g transform="translate(1469.199951171875 10) rotate(0 8 152.80001831054688)" stroke="none"><path fill="#1971c2" d="M 6.73,0 Q 6.73,0 6.53,12.88 6.33,25.76 6.18,41.81 6.03,57.86 5.92,77.57 5.82,97.27 5.74,119.44 5.66,141.62 5.61,163.92 5.55,186.22 6.88,207.02 8.21,227.82 10.59,244.82 12.97,261.82 15.32,273.09 17.68,284.37 19.15,290.16 20.61,295.96 21.38,297.90 22.15,299.84 22.20,300.67 22.25,301.50 22.09,302.32 21.94,303.13 21.59,303.89 21.24,304.65 20.73,305.30 20.21,305.95 19.55,306.46 18.89,306.97 18.13,307.31 17.37,307.65 16.55,307.79 15.73,307.94 14.90,307.88 14.06,307.83 13.27,307.58 12.48,307.32 11.77,306.89 11.06,306.45 10.47,305.86 9.89,305.27 9.46,304.55 9.03,303.84 8.79,303.04 8.55,302.24 8.05,297.40 7.55,292.55 7.03,288.99 6.50,285.43 6.61,284.16 6.71,282.88 7.22,281.70 7.73,280.53 8.58,279.57 9.44,278.62 10.56,277.99 11.67,277.36 12.93,277.12 14.19,276.88 15.46,277.06 16.72,277.23 17.87,277.80 19.02,278.37 19.92,279.28 20.83,280.18 21.40,281.33 21.96,282.48 22.14,283.75 22.31,285.02 22.07,286.27 21.82,287.53 21.19,288.65 20.56,289.76 19.61,290.61 18.65,291.47 17.48,291.97 16.30,292.48 15.02,292.58 13.75,292.68 12.50,292.37 11.26,292.06 10.18,291.37 9.10,290.68 8.30,289.68 7.50,288.68 7.06,287.48 6.62,286.28 6.59,285.00 6.55,283.72 6.93,282.50 7.31,281.27 8.05,280.23 8.80,279.19 9.84,278.45 10.88,277.70 12.11,277.32 13.33,276.95 14.61,276.99 15.89,277.02 17.10,277.46 18.30,277.91 19.30,278.71 20.29,279.51 20.98,280.59 21.67,281.67 21.98,282.92 22.29,284.16 22.29,284.16 22.29,284.16 22.33,287.58 22.37,291.00 22.26,295.42 22.15,299.83 22.20,300.67 22.25,301.50 22.09,302.32 21.94,303.13 21.59,303.89 21.24,304.65 20.73,305.30 20.21,305.95 19.55,306.46 18.89,306.97 18.13,307.31 17.37,307.65 16.55,307.79 15.73,307.94 14.90,307.88 14.07,307.83 13.27,307.58 12.48,307.32 11.77,306.89 11.06,306.45 10.47,305.86 9.89,305.27 9.46,304.55 9.03,303.84 8.79,303.04 8.55,302.25 8.45,300.19 8.35,298.13 7.76,292.35 7.18,286.58 4.71,274.95 2.25,263.33 -0.22,245.94 -2.69,228.54 -4.12,207.38 -5.55,186.22 -5.61,163.92 -5.66,141.62 -5.74,119.44 -5.82,97.27 -5.92,77.57 -6.03,57.86 -6.18,41.81 -6.33,25.76 -6.53,12.88 -6.73,0 -6.63,-0.80 -6.53,-1.61 -6.24,-2.36 -5.96,-3.12 -5.49,-3.79 -5.03,-4.46 -4.43,-5.00 -3.82,-5.53 -3.10,-5.91 -2.38,-6.29 -1.59,-6.48 -0.81,-6.68 0.00,-6.68 0.81,-6.68 1.59,-6.48 2.38,-6.29 3.10,-5.91 3.82,-5.53 4.43,-5.00 5.03,-4.46 5.49,-3.79 5.96,-3.12 6.24,-2.36 6.53,-1.61 6.63,-0.80 6.73,0.00 6.73,0.00 L 6.73,0 Z"></path></g><g transform="translate(1422.800048828125 152.4000244140625) rotate(0 124.800048828125 -2.399993896484375)" stroke="none"><path fill="#1971c2" d="M -0.79,-7.44 Q -0.79,-7.44 12.11,-8.53 25.02,-9.61 45.49,-9.99 65.96,-10.37 91.16,-10.46 116.37,-10.55 142.25,-10.54 168.13,-10.52 188.33,-10.48 208.53,-10.44 219.42,-10.40 230.30,-10.35 235.84,-10.80 241.39,-11.24 245.49,-11.68 249.58,-12.11 250.75,-11.92 251.92,-11.73 252.97,-11.17 254.01,-10.62 254.83,-9.76 255.64,-8.91 256.14,-7.83 256.64,-6.76 256.77,-5.59 256.90,-4.41 256.64,-3.25 256.39,-2.10 255.78,-1.08 255.17,-0.07 254.27,0.69 253.37,1.45 252.27,1.89 251.18,2.33 250.00,2.40 248.81,2.46 247.67,2.15 246.53,1.83 245.55,1.17 244.57,0.51 243.86,-0.42 243.14,-1.36 242.76,-2.48 242.38,-3.60 242.38,-4.79 242.38,-5.97 242.76,-7.09 243.13,-8.21 243.85,-9.15 244.56,-10.10 245.54,-10.76 246.52,-11.43 247.66,-11.74 248.80,-12.06 249.98,-12.00 251.16,-11.94 252.26,-11.50 253.36,-11.06 254.26,-10.30 255.16,-9.53 255.77,-8.52 256.38,-7.51 256.64,-6.35 256.89,-5.20 256.77,-4.02 256.64,-2.85 256.15,-1.77 255.65,-0.70 254.84,0.15 254.03,1.01 252.98,1.57 251.94,2.12 250.77,2.31 249.60,2.51 249.60,2.51 249.61,2.51 245.51,2.09 241.41,1.67 235.86,1.24 230.32,0.81 219.44,0.89 208.56,0.97 188.37,1.10 168.18,1.24 142.34,1.46 116.49,1.68 91.41,2.10 66.33,2.51 46.41,3.30 26.49,4.09 13.64,5.77 0.79,7.44 -0.10,7.43 -1.00,7.42 -1.88,7.19 -2.75,6.96 -3.54,6.53 -4.34,6.10 -5.01,5.49 -5.67,4.88 -6.18,4.13 -6.68,3.38 -6.99,2.53 -7.29,1.68 -7.39,0.79 -7.49,-0.10 -7.36,-1.00 -7.24,-1.89 -6.91,-2.73 -6.58,-3.57 -6.06,-4.31 -5.53,-5.04 -4.85,-5.63 -4.16,-6.22 -3.36,-6.63 -2.55,-7.04 -1.67,-7.24 -0.79,-7.44 -0.79,-7.44 L -0.79,-7.44 Z"></path></g></svg>